#!OML:ASF H:\Male1\Project 1\Capture day 1\Session 1\Male1.ASF
:FULLY-SPECIFIED
:DEGREES
751
root 15.9266 15.11 -2.64236 -40.833 -92.0672 40.0332
lowerback 9.51346 0.491905 -3.69605
upperback 4.07048 0.213425 1.00283
thorax -1.12283 0.0046753 3.09766
lowerneck 2.03547 1.35729 6.32775
upperneck -21.1531 1.50283 -1.7598
head -6.7065 0.122446 -1.69677
rclavicle 3.75206e-015 6.36111e-015
rhumerus 17.4158 16.641 -81.8671
rradius 104.111
rwrist -38.9084
rhand -38.2569 8.49307
rfingers 7.12502
rthumb -11.2871 -21.1832
lclavicle 3.75206e-015 6.36111e-015
lhumerus 37.1002 -36.7217 66.3175
lradius 104.126
lwrist -14.5207
lhand -48.4552 4.4934
lfingers 7.12502
lthumb -21.1057 33.3647
rfemur -19.9726 -16.241 7.55742
rtibia 49.7206
rfoot -22.581 -19.1055
rtoes -14.6601
lfemur -9.55591 12.8035 -9.71751
ltibia 34.6498
lfoot -22.7632 1.84293
ltoes -29.3023
752
root 15.9165 15.0936 -2.75217 -53.0312 -92.0097 52.1181
lowerback 9.73568 0.284655 -3.18668
upperback 4.16481 -0.0267839 1.16153
thorax -1.12912 -0.115643 3.00045
lowerneck 1.63284 1.28984 6.23473
upperneck -21.5616 1.3704 -1.5542
head -6.77724 0.0220621 -1.60579
rclavicle -1.49089e-015 1.54058e-014
rhumerus 19.0707 14.519 -80.5671
rradius 104.128
rwrist -38.7969
rhand -39.5313 8.57584
rfingers 7.12502
rthumb -12.5159 -21.0293
lclavicle -1.49089e-015 1.54058e-014
lhumerus 40.0219 -36.7921 65.6006
lradius 102.827
lwrist -14.7165
lhand -49.6485 2.92077
lfingers 7.12502
lthumb -22.2517 31.6598
rfemur -18.4757 -15.2827 6.08505
rtibia 48.0607
rfoot -21.8275 -18.002
rtoes -9.4127
lfemur -9.83412 13.6862 -8.85256
ltibia 35.1303
lfoot -21.7579 0.291219
ltoes -25.5849
753
root 15.898 15.0766 -2.86751 -60.5361 -92.2864 59.4147
lowerback 11.3113 -0.177746 -0.913561
upperback 3.30406 -0.452344 0.142975
thorax -2.88426 -0.274274 0.726954
lowerneck 1.54246 1.09816 6.95189
upperneck -20.8028 1.35211 -0.598069
head -6.53208 -0.0867927 -1.41056
rclavicle -3.47873e-015 -4.37326e-015
rhumerus 19.1467 12.0722 -81.3515
rradius 104.104
rwrist -38.6586
rhand -40.5153 8.81025
rfingers 7.12502
rthumb -13.4645 -20.7345
lclavicle -3.47873e-015 -4.37326e-015
lhumerus 41.8876 -37.5468 63.6759
lradius 101.494
lwrist -14.5138
lhand -51.2212 -0.325203
lfingers 7.12502
lthumb -23.7607 28.2258
rfemur -17.2586 -14.1 4.91703
rtibia 46.3299
rfoot -18.3035 -19.0187
rtoes -14.1282
lfemur -10.0308 14.7175 -7.87696
ltibia 35.7018
lfoot -20.7421 -0.146577
ltoes -24.0481
754
root 15.8738 15.0558 -2.9874 -60.4187 -92.6656 59.084
lowerback 10.9543 -0.361597 -0.693004
upperback 3.56833 -0.660455 0.686144
thorax -2.40585 -0.38707 1.1882
lowerneck 1.66177 1.13057 6.60841
upperneck -21.1729 1.31121 -0.887392
head -6.66911 -0.075822 -1.44658
rclavicle -1.73937e-015 1.23246e-014
rhumerus 21.6352 10.2699 -79.2681
rradius 103.654
rwrist -39.2891
rhand -41.2408 9.1098
rfingers 7.12502
rthumb -14.1637 -20.3874
lclavicle -1.73937e-015 1.23246e-014
lhumerus 44.9497 -36.4945 63.1874
lradius 99.8621
lwrist -14.3426
lhand -52.7046 -2.58706
lfingers 7.12502
lthumb -25.1827 25.7716
rfemur -16.0382 -12.7466 3.80137
rtibia 44.5524
rfoot -15.5694 -19.3767
rtoes -13.329
lfemur -10.0718 15.618 -7.01993
ltibia 36.17
lfoot -20.0332 0.233723
ltoes -23.8225
755
root 15.8478 15.0369 -3.11231 -54.0571 -92.9351 52.5139
lowerback 10.5839 -0.473382 -0.9047
upperback 3.79616 -0.823237 1.31965
thorax -1.94944 -0.481014 1.97728
lowerneck 1.76367 1.27546 6.23714
upperneck -21.5976 1.36131 -1.45636
head -6.8135 0.00227239 -1.57437
rclavicle 1.54679e-015 1.16289e-014
rhumerus 24.5174 8.56705 -76.9857
rradius 102.802
rwrist -39.7453
rhand -42.4147 11.842
rfingers 7.12502
rthumb -15.2947 -17.5725
lclavicle 1.54679e-015 1.16289e-014
lhumerus 47.8788 -35.0658 63.0433
lradius 98.2578
lwrist -14.3442
lhand -53.1538 3.76002
lfingers 7.12502
lthumb -25.6131 32.0575
rfemur -14.8814 -11.3429 2.55072
rtibia 42.7393
rfoot -14.1689 -19.8612
rtoes -9.53016
lfemur -9.75413 15.8496 -6.49771
ltibia 36.2773
lfoot -19.6566 1.11319
ltoes -23.8828
756
root 15.8195 15.0221 -3.24169 -43.607 -93.1528 41.8271
lowerback 10.1168 -0.612298 -1.68577
upperback 4.10142 -1.0825 2.1791
thorax -1.33258 -0.639578 3.32891
lowerneck 1.62266 1.62077 5.59909
upperneck -21.8871 1.58663 -2.29267
head -6.86134 0.209704 -1.752
rclavicle 2.21645e-014 -1.2921e-014
rhumerus 28.091 7.31477 -74.5071
rradius 101.245
rwrist -39.6376
rhand -42.9814 11.609
rfingers 7.12502
rthumb -15.8405 -17.763
lclavicle 2.21645e-014 -1.2921e-014
lhumerus 50.3812 -32.8788 63.5656
lradius 96.6515
lwrist -14.9083
lhand -53.5012 3.98212
lfingers 7.12502
lthumb -25.9458 32.2313
rfemur -13.7753 -9.9012 1.15976
rtibia 40.8951
rfoot -13.3519 -21.223
rtoes -6.41163
lfemur -9.06291 15.203 -6.26682
ltibia 35.9956
lfoot -19.4562 2.45603
ltoes -25.043
757
root 15.7899 15.0085 -3.38221 -27.9236 -93.5028 25.8764
lowerback 10.1573 -0.914997 -1.68365
upperback 4.06018 -1.48599 2.07069
thorax -1.37243 -0.838999 3.26014
lowerneck 1.40231 1.95657 5.76628
upperneck -21.6842 1.94163 -2.82548
head -6.73045 0.40923 -1.96833
rclavicle -2.58917e-014 2.48481e-014
rhumerus 31.1896 6.161 -73.7045
rradius 99.1557
rwrist -39.2625
rhand -43.0143 10.9967
rfingers 7.12502
rthumb -15.8722 -18.3728
lclavicle -2.58917e-014 2.48481e-014
lhumerus 52.2017 -30.8439 63.3315
lradius 95.0388
lwrist -15.2754
lhand -52.7719 -0.382237
lfingers 7.12502
lthumb -25.2473 27.9674
rfemur -12.7626 -8.07126 -0.413606
rtibia 38.9664
rfoot -12.6928 -23.3385
rtoes -3.47293
lfemur -8.05814 14.1962 -6.35525
ltibia 35.3842
lfoot -19.0956 3.99444
ltoes -26.6065
758
root 15.7584 14.9987 -3.53947 -14.5592 -94.3366 12.1906
lowerback 10.2669 -1.1222 -1.75755
upperback 3.95066 -1.7682 1.92324
thorax -1.52937 -0.974371 3.18454
lowerneck 1.60053 2.24714 6.07693
upperneck -21.7405 2.27398 -3.35393
head -6.75357 0.583423 -2.21331
rclavicle -9.93923e-016 9.54166e-015
rhumerus 34.1371 5.2933 -73.1039
rradius 96.7654
rwrist -39.8648
rhand -42.9439 10.8817
rfingers 7.12502
rthumb -15.8044 -18.4931
lclavicle -9.93923e-016 9.54166e-015
lhumerus 53.5862 -28.7976 63.5027
lradius 93.5211
lwrist -14.9321
lhand -53.0245 3.73925
lfingers 7.12502
lthumb -25.4892 32.0545
rfemur -11.8203 -5.66609 -1.74218
rtibia 36.8893
rfoot -12.0984 -25.6233
rtoes -0.125282
lfemur -6.80693 13.3932 -6.37539
ltibia 34.5802
lfoot -18.3706 5.40913
ltoes -27.3568
759
root 15.7248 15.0034 -3.71662 -8.34482 -95.558 5.78595
lowerback 10.2431 -1.30687 -1.63198
upperback 3.79729 -1.99713 1.82074
thorax -1.6684 -1.08097 3.03467
lowerneck 1.80373 2.6236 6.2195
upperneck -21.8251 2.78607 -3.48368
head -6.78567 0.824268 -2.31205
rclavicle 2.46493e-014 -2.3059e-014
rhumerus 36.9381 4.88689 -72.6946
rradius 94.1515
rwrist -41.5181
rhand -42.9013 10.5145
rfingers 7.12502
rthumb -15.7633 -18.8636
lclavicle 2.46493e-014 -2.3059e-014
lhumerus 54.5673 -26.6741 63.9709
lradius 91.7601
lwrist -14.9698
lhand -52.8399 4.44606
lfingers 7.12502
lthumb -25.3124 32.7865
rfemur -11.0368 -2.75789 -2.44631
rtibia 34.5871
rfoot -11.5989 -27.9676
rtoes 2.59237
lfemur -5.60199 12.8484 -6.02048
ltibia 33.7291
lfoot -17.2686 6.60498
ltoes -27.4805
760
root 15.6933 15.0216 -3.91779 -3.5027 -97.0453 0.926899
lowerback 9.93813 -1.42445 -1.77518
upperback 3.71165 -2.16078 1.7487
thorax -1.57713 -1.16138 3.04917
lowerneck 1.49795 3.01166 6.35029
upperneck -21.3818 3.26799 -3.74314
head -6.55524 1.0741 -2.43071
rclavicle -4.85532e-014 2.34566e-014
rhumerus 39.7732 4.9572 -72.3573
rradius 91.4655
rwrist -43.9332
rhand -42.727 9.85171
rfingers 7.12502
rthumb -15.5954 -19.5396
lclavicle -4.85532e-014 2.34566e-014
lhumerus 55.3939 -24.4337 64.7946
lradius 89.4977
lwrist -15.6539
lhand -52.4255 0.791243
lfingers 7.12502
lthumb -24.9153 29.1872
rfemur -10.4836 0.882527 -2.96677
rtibia 32.1192
rfoot -11.6722 -30.4529
rtoes 3.01107
lfemur -4.51168 12.3777 -5.64498
ltibia 32.9008
lfoot -15.9458 7.53337
ltoes -26.5823
761
root 15.6456 15.0421 -4.13376 0.673884 -98.3425 -3.2201
lowerback 9.52959 -1.6143 -1.93548
upperback 3.50156 -2.41324 1.6102
thorax -1.55364 -1.28005 3.01105
lowerneck 1.27735 3.36503 6.54261
upperneck -20.8443 3.69894 -4.13695
head -6.30666 1.31173 -2.59648
rclavicle 1.5207e-014 2.18663e-014
rhumerus 42.1538 5.37113 -72.2431
rradius 88.6926
rwrist -45.972
rhand -42.2376 8.44777
rfingers 7.12502
rthumb -15.124 -20.9796
lclavicle 1.5207e-014 2.18663e-014
lhumerus 56.1358 -22.725 65.6072
lradius 87.4806
lwrist -15.6892
lhand -52.191 0.252258
lfingers 7.12502
lthumb -24.6905 28.6792
rfemur -9.74362 4.58289 -3.53998
rtibia 29.708
rfoot -11.0081 -31.3735
rtoes 5.26232
lfemur -3.44013 11.5929 -5.36898
ltibia 32.0969
lfoot -14.5131 8.24163
ltoes -24.2135
